<svg width="1440" height="649" viewBox="0 0 1440 649" fill="none" xmlns="http://www.w3.org/2000/svg">
<g clip-path="url(#clip0)">
<path d="M-406 230.99L-335.3 280.816C-264.6 329.894 -123.2 430.665 18.2 400.247C159.6 370.949 301 210.463 442.4 191.242C583.8 171.275 725.2 290.706 866.6 310.673C1008 329.894 1149.4 251.518 1290.8 260.848C1432.2 270.179 1573.6 370.949 1644.3 420.028L1715 469.853V649H1644.3C1573.6 649 1432.2 649 1290.8 649C1149.4 649 1008 649 866.6 649C725.2 649 583.8 649 442.4 649C301 649 159.6 649 18.2 649C-123.2 649 -264.6 649 -335.3 649H-406V230.99Z" fill="#5D5FEF"/>
</g>
<defs>
<clipPath id="clip0">
<rect width="1440" height="649" fill="white"/>
</clipPath>
</defs>
</svg>
