<svg width="1440" height="649" viewBox="0 0 1440 649" fill="none" xmlns="http://www.w3.org/2000/svg">
<g clip-path="url(#clip0)">
<path d="M-681 205.99L-610.3 255.816C-539.6 304.894 -398.2 405.665 -256.8 375.247C-115.4 345.949 26 185.463 167.4 166.242C308.8 146.275 450.2 265.706 591.6 285.673C733 304.894 874.4 226.518 1015.8 235.848C1157.2 245.179 1298.6 345.949 1369.3 395.028L1440 444.853V624H1369.3C1298.6 624 1157.2 624 1015.8 624C874.4 624 733 624 591.6 624C450.2 624 308.8 624 167.4 624C26 624 -115.4 624 -256.8 624C-398.2 624 -539.6 624 -610.3 624H-681V205.99Z" fill="#5D5FEF" fill-opacity="0.3"/>
<path d="M-556 41.9903L-485.3 91.8156C-414.6 140.894 -273.2 241.665 -131.8 211.247C9.60002 181.949 151 21.4631 292.4 2.24208C433.8 -17.7253 575.2 101.706 716.6 121.673C858 140.894 999.4 62.5176 1140.8 71.8482C1282.2 81.1787 1423.6 181.949 1494.3 231.028L1565 280.853V460H1494.3C1423.6 460 1282.2 460 1140.8 460C999.4 460 858 460 716.6 460C575.2 460 433.8 460 292.4 460C151 460 9.60002 460 -131.8 460C-273.2 460 -414.6 460 -485.3 460H-556V41.9903Z" fill="#5D5FEF" fill-opacity="0.05"/>
<path d="M-314 380.99L-243.3 430.816C-172.6 479.894 -31.2 580.665 110.2 550.247C251.6 520.949 393 360.463 534.4 341.242C675.8 321.275 817.2 440.706 958.6 460.673C1100 479.894 1241.4 401.518 1382.8 410.848C1524.2 420.179 1665.6 520.949 1736.3 570.028L1807 619.853V799H1736.3C1665.6 799 1524.2 799 1382.8 799C1241.4 799 1100 799 958.6 799C817.2 799 675.8 799 534.4 799C393 799 251.6 799 110.2 799C-31.2 799 -172.6 799 -243.3 799H-314V380.99Z" fill="white" fill-opacity="0.05"/>
<path d="M-406 230.99L-335.3 280.816C-264.6 329.894 -123.2 430.665 18.2 400.247C159.6 370.949 301 210.463 442.4 191.242C583.8 171.275 725.2 290.706 866.6 310.673C1008 329.894 1149.4 251.518 1290.8 260.848C1432.2 270.179 1573.6 370.949 1644.3 420.028L1715 469.853V649H1644.3C1573.6 649 1432.2 649 1290.8 649C1149.4 649 1008 649 866.6 649C725.2 649 583.8 649 442.4 649C301 649 159.6 649 18.2 649C-123.2 649 -264.6 649 -335.3 649H-406V230.99Z" fill="#5D5FEF"/>
</g>
<defs>
<clipPath id="clip0">
<rect width="1440" height="649" fill="white"/>
</clipPath>
</defs>
</svg>
