<svg width="1440" height="886" viewBox="0 0 1440 886" fill="none" xmlns="http://www.w3.org/2000/svg">
<g clip-path="url(#clip0)">
<path d="M-433 441.638L-364.5 494.604C-296 546.777 -159 653.9 -22 621.565C115 590.42 252 419.816 389 399.383C526 378.157 663 505.118 800 526.344C937 546.777 1074 463.459 1211 473.378C1348 483.297 1485 590.42 1553.5 642.593L1622 695.559V886H1553.5C1485 886 1348 886 1211 886C1074 886 937 886 800 886C663 886 526 886 389 886C252 886 115 886 -22 886C-159 886 -296 886 -364.5 886H-433V441.638Z" fill="#5D5FEF"/>
</g>
<defs>
<clipPath id="clip0">
<rect width="1440" height="886" fill="white"/>
</clipPath>
</defs>
</svg>
