<svg width="1440" height="320" viewBox="0 0 1440 320" fill="none" xmlns="http://www.w3.org/2000/svg">
<g clip-path="url(#clip0)">
<path d="M0 96L48 112C96 128 192 160 288 197.3C384 235 480 277 576 288C672 299 768 277 864 245.3C960 213 1056 171 1152 176C1248 181 1344 235 1392 261.3L1440 288V-3.05176e-05H1392C1344 -3.05176e-05 1248 -3.05176e-05 1152 -3.05176e-05C1056 -3.05176e-05 960 -3.05176e-05 864 -3.05176e-05C768 -3.05176e-05 672 -3.05176e-05 576 -3.05176e-05C480 -3.05176e-05 384 -3.05176e-05 288 -3.05176e-05C192 -3.05176e-05 96 -3.05176e-05 48 -3.05176e-05H0V96Z" fill="#5D5FEF"/>
</g>
<defs>
<clipPath id="clip0">
<rect width="1440" height="320" fill="white"/>
</clipPath>
</defs>
</svg>
